<?xml version="1.0" encoding="utf-8" standalone="no"?>
<!DOCTYPE svg PUBLIC "-//W3C//DTD SVG 1.1//EN"
  "http://www.w3.org/Graphics/SVG/1.1/DTD/svg11.dtd">
<svg xmlns:xlink="http://www.w3.org/1999/xlink" width="560.636767pt" height="348.824933pt" viewBox="0 0 560.636767 348.824933" xmlns="http://www.w3.org/2000/svg" version="1.1">
 <metadata>
  <rdf:RDF xmlns:dc="http://purl.org/dc/elements/1.1/" xmlns:cc="http://creativecommons.org/ns#" xmlns:rdf="http://www.w3.org/1999/02/22-rdf-syntax-ns#">
   <cc:Work>
    <dc:type rdf:resource="http://purl.org/dc/dcmitype/StillImage"/>
    <dc:date>2026-10-02T09:58:07.142329</dc:date>
    <dc:format>image/svg+xml</dc:format>
    <dc:creator>
     <cc:Agent>
      <dc:title>Matplotlib v3.10.9, https://matplotlib.org/</dc:title>
     </cc:Agent>
    </dc:creator>
   </cc:Work>
  </rdf:RDF>
 </metadata>
 <defs>
  <style type="text/css">*{stroke-linejoin: round; stroke-linecap: butt}</style>
 </defs>
 <g id="figure_1">
  <g id="patch_1">
   <path d="M 0 348.824933 
L 560.636767 348.824933 
L 560.636767 0 
L 0 0 
z
" style="fill: #ffffff"/>
  </g>
  <g id="axes_1">
   <g id="patch_2">
    <path d="M 40.076767 266.078125 
L 553.436767 266.078125 
L 553.436767 44.318125 
L 40.076767 44.318125 
z
" style="fill: #ffffff"/>
   </g>
   <g id="matplotlib.axis_1">
    <g id="xtick_1">
     <g id="line2d_1">
      <defs>
       <path id="m760110477a" d="M 0 0 
L 0 3.5 
" style="stroke: #5a5a5a; stroke-width: 0.8"/>
      </defs>
      <g>
       <use xlink:href="#m760110477a" x="83.461104" y="266.078125" style="fill: #5a5a5a; stroke: #5a5a5a; stroke-width: 0.8"/>
      </g>
     </g>
     <g id="text_1">
      <!-- Gobierno nacional -->
      <g style="fill: #5a5a5a" transform="translate(10.410525 317.490704) rotate(-28) scale(0.09 -0.09)">
       <defs>
        <path id="DejaVuSans-47" d="M 3809 666 
L 3809 1919 
L 2778 1919 
L 2778 2438 
L 4434 2438 
L 4434 434 
Q 4069 175 3628 42 
Q 3188 -91 2688 -91 
Q 1594 -91 976 548 
Q 359 1188 359 2328 
Q 359 3472 976 4111 
Q 1594 4750 2688 4750 
Q 3144 4750 3555 4637 
Q 3966 4525 4313 4306 
L 4313 3634 
Q 3963 3931 3569 4081 
Q 3175 4231 2741 4231 
Q 1884 4231 1454 3753 
Q 1025 3275 1025 2328 
Q 1025 1384 1454 906 
Q 1884 428 2741 428 
Q 3075 428 3337 486 
Q 3600 544 3809 666 
z
" transform="scale(0.015625)"/>
        <path id="DejaVuSans-6f" d="M 1959 3097 
Q 1497 3097 1228 2736 
Q 959 2375 959 1747 
Q 959 1119 1226 758 
Q 1494 397 1959 397 
Q 2419 397 2687 759 
Q 2956 1122 2956 1747 
Q 2956 2369 2687 2733 
Q 2419 3097 1959 3097 
z
M 1959 3584 
Q 2709 3584 3137 3096 
Q 3566 2609 3566 1747 
Q 3566 888 3137 398 
Q 2709 -91 1959 -91 
Q 1206 -91 779 398 
Q 353 888 353 1747 
Q 353 2609 779 3096 
Q 1206 3584 1959 3584 
z
" transform="scale(0.015625)"/>
        <path id="DejaVuSans-62" d="M 3116 1747 
Q 3116 2381 2855 2742 
Q 2594 3103 2138 3103 
Q 1681 3103 1420 2742 
Q 1159 2381 1159 1747 
Q 1159 1113 1420 752 
Q 1681 391 2138 391 
Q 2594 391 2855 752 
Q 3116 1113 3116 1747 
z
M 1159 2969 
Q 1341 3281 1617 3432 
Q 1894 3584 2278 3584 
Q 2916 3584 3314 3078 
Q 3713 2572 3713 1747 
Q 3713 922 3314 415 
Q 2916 -91 2278 -91 
Q 1894 -91 1617 61 
Q 1341 213 1159 525 
L 1159 0 
L 581 0 
L 581 4863 
L 1159 4863 
L 1159 2969 
z
" transform="scale(0.015625)"/>
        <path id="DejaVuSans-69" d="M 603 3500 
L 1178 3500 
L 1178 0 
L 603 0 
L 603 3500 
z
M 603 4863 
L 1178 4863 
L 1178 4134 
L 603 4134 
L 603 4863 
z
" transform="scale(0.015625)"/>
        <path id="DejaVuSans-65" d="M 3597 1894 
L 3597 1613 
L 953 1613 
Q 991 1019 1311 708 
Q 1631 397 2203 397 
Q 2534 397 2845 478 
Q 3156 559 3463 722 
L 3463 178 
Q 3153 47 2828 -22 
Q 2503 -91 2169 -91 
Q 1331 -91 842 396 
Q 353 884 353 1716 
Q 353 2575 817 3079 
Q 1281 3584 2069 3584 
Q 2775 3584 3186 3129 
Q 3597 2675 3597 1894 
z
M 3022 2063 
Q 3016 2534 2758 2815 
Q 2500 3097 2075 3097 
Q 1594 3097 1305 2825 
Q 1016 2553 972 2059 
L 3022 2063 
z
" transform="scale(0.015625)"/>
        <path id="DejaVuSans-72" d="M 2631 2963 
Q 2534 3019 2420 3045 
Q 2306 3072 2169 3072 
Q 1681 3072 1420 2755 
Q 1159 2438 1159 1844 
L 1159 0 
L 581 0 
L 581 3500 
L 1159 3500 
L 1159 2956 
Q 1341 3275 1631 3429 
Q 1922 3584 2338 3584 
Q 2397 3584 2469 3576 
Q 2541 3569 2628 3553 
L 2631 2963 
z
" transform="scale(0.015625)"/>
        <path id="DejaVuSans-6e" d="M 3513 2113 
L 3513 0 
L 2938 0 
L 2938 2094 
Q 2938 2591 2744 2837 
Q 2550 3084 2163 3084 
Q 1697 3084 1428 2787 
Q 1159 2491 1159 1978 
L 1159 0 
L 581 0 
L 581 3500 
L 1159 3500 
L 1159 2956 
Q 1366 3272 1645 3428 
Q 1925 3584 2291 3584 
Q 2894 3584 3203 3211 
Q 3513 2838 3513 2113 
z
" transform="scale(0.015625)"/>
        <path id="DejaVuSans-20" transform="scale(0.015625)"/>
        <path id="DejaVuSans-61" d="M 2194 1759 
Q 1497 1759 1228 1600 
Q 959 1441 959 1056 
Q 959 750 1161 570 
Q 1363 391 1709 391 
Q 2188 391 2477 730 
Q 2766 1069 2766 1631 
L 2766 1759 
L 2194 1759 
z
M 3341 1997 
L 3341 0 
L 2766 0 
L 2766 531 
Q 2569 213 2275 61 
Q 1981 -91 1556 -91 
Q 1019 -91 701 211 
Q 384 513 384 1019 
Q 384 1609 779 1909 
Q 1175 2209 1959 2209 
L 2766 2209 
L 2766 2266 
Q 2766 2663 2505 2880 
Q 2244 3097 1772 3097 
Q 1472 3097 1187 3025 
Q 903 2953 641 2809 
L 641 3341 
Q 956 3463 1253 3523 
Q 1550 3584 1831 3584 
Q 2591 3584 2966 3190 
Q 3341 2797 3341 1997 
z
" transform="scale(0.015625)"/>
        <path id="DejaVuSans-63" d="M 3122 3366 
L 3122 2828 
Q 2878 2963 2633 3030 
Q 2388 3097 2138 3097 
Q 1578 3097 1268 2742 
Q 959 2388 959 1747 
Q 959 1106 1268 751 
Q 1578 397 2138 397 
Q 2388 397 2633 464 
Q 2878 531 3122 666 
L 3122 134 
Q 2881 22 2623 -34 
Q 2366 -91 2075 -91 
Q 1284 -91 818 406 
Q 353 903 353 1747 
Q 353 2603 823 3093 
Q 1294 3584 2113 3584 
Q 2378 3584 2631 3529 
Q 2884 3475 3122 3366 
z
" transform="scale(0.015625)"/>
        <path id="DejaVuSans-6c" d="M 603 4863 
L 1178 4863 
L 1178 0 
L 603 0 
L 603 4863 
z
" transform="scale(0.015625)"/>
       </defs>
       <use xlink:href="#DejaVuSans-47"/>
       <use xlink:href="#DejaVuSans-6f" transform="translate(77.490234 0)"/>
       <use xlink:href="#DejaVuSans-62" transform="translate(138.671875 0)"/>
       <use xlink:href="#DejaVuSans-69" transform="translate(202.148438 0)"/>
       <use xlink:href="#DejaVuSans-65" transform="translate(229.931641 0)"/>
       <use xlink:href="#DejaVuSans-72" transform="translate(291.455078 0)"/>
       <use xlink:href="#DejaVuSans-6e" transform="translate(330.818359 0)"/>
       <use xlink:href="#DejaVuSans-6f" transform="translate(394.197266 0)"/>
       <use xlink:href="#DejaVuSans-20" transform="translate(455.378906 0)"/>
       <use xlink:href="#DejaVuSans-6e" transform="translate(487.166016 0)"/>
       <use xlink:href="#DejaVuSans-61" transform="translate(550.544922 0)"/>
       <use xlink:href="#DejaVuSans-63" transform="translate(611.824219 0)"/>
       <use xlink:href="#DejaVuSans-69" transform="translate(666.804688 0)"/>
       <use xlink:href="#DejaVuSans-6f" transform="translate(694.587891 0)"/>
       <use xlink:href="#DejaVuSans-6e" transform="translate(755.769531 0)"/>
       <use xlink:href="#DejaVuSans-61" transform="translate(819.148438 0)"/>
       <use xlink:href="#DejaVuSans-6c" transform="translate(880.427734 0)"/>
      </g>
     </g>
    </g>
    <g id="xtick_2">
     <g id="line2d_2">
      <g>
       <use xlink:href="#m760110477a" x="136.78502" y="266.078125" style="fill: #5a5a5a; stroke: #5a5a5a; stroke-width: 0.8"/>
      </g>
     </g>
     <g id="text_2">
      <!-- Gobierno regional -->
      <g style="fill: #5a5a5a" transform="translate(64.987261 316.824568) rotate(-28) scale(0.09 -0.09)">
       <defs>
        <path id="DejaVuSans-67" d="M 2906 1791 
Q 2906 2416 2648 2759 
Q 2391 3103 1925 3103 
Q 1463 3103 1205 2759 
Q 947 2416 947 1791 
Q 947 1169 1205 825 
Q 1463 481 1925 481 
Q 2391 481 2648 825 
Q 2906 1169 2906 1791 
z
M 3481 434 
Q 3481 -459 3084 -895 
Q 2688 -1331 1869 -1331 
Q 1566 -1331 1297 -1286 
Q 1028 -1241 775 -1147 
L 775 -588 
Q 1028 -725 1275 -790 
Q 1522 -856 1778 -856 
Q 2344 -856 2625 -561 
Q 2906 -266 2906 331 
L 2906 616 
Q 2728 306 2450 153 
Q 2172 0 1784 0 
Q 1141 0 747 490 
Q 353 981 353 1791 
Q 353 2603 747 3093 
Q 1141 3584 1784 3584 
Q 2172 3584 2450 3431 
Q 2728 3278 2906 2969 
L 2906 3500 
L 3481 3500 
L 3481 434 
z
" transform="scale(0.015625)"/>
       </defs>
       <use xlink:href="#DejaVuSans-47"/>
       <use xlink:href="#DejaVuSans-6f" transform="translate(77.490234 0)"/>
       <use xlink:href="#DejaVuSans-62" transform="translate(138.671875 0)"/>
       <use xlink:href="#DejaVuSans-69" transform="translate(202.148438 0)"/>
       <use xlink:href="#DejaVuSans-65" transform="translate(229.931641 0)"/>
       <use xlink:href="#DejaVuSans-72" transform="translate(291.455078 0)"/>
       <use xlink:href="#DejaVuSans-6e" transform="translate(330.818359 0)"/>
       <use xlink:href="#DejaVuSans-6f" transform="translate(394.197266 0)"/>
       <use xlink:href="#DejaVuSans-20" transform="translate(455.378906 0)"/>
       <use xlink:href="#DejaVuSans-72" transform="translate(487.166016 0)"/>
       <use xlink:href="#DejaVuSans-65" transform="translate(526.029297 0)"/>
       <use xlink:href="#DejaVuSans-67" transform="translate(587.552734 0)"/>
       <use xlink:href="#DejaVuSans-69" transform="translate(651.029297 0)"/>
       <use xlink:href="#DejaVuSans-6f" transform="translate(678.8125 0)"/>
       <use xlink:href="#DejaVuSans-6e" transform="translate(739.994141 0)"/>
       <use xlink:href="#DejaVuSans-61" transform="translate(803.373047 0)"/>
       <use xlink:href="#DejaVuSans-6c" transform="translate(864.652344 0)"/>
      </g>
     </g>
    </g>
    <g id="xtick_3">
     <g id="line2d_3">
      <g>
       <use xlink:href="#m760110477a" x="190.108935" y="266.078125" style="fill: #5a5a5a; stroke: #5a5a5a; stroke-width: 0.8"/>
      </g>
     </g>
     <g id="text_3">
      <!-- Gobierno local -->
      <g style="fill: #5a5a5a" transform="translate(132.000313 309.545924) rotate(-28) scale(0.09 -0.09)">
       <use xlink:href="#DejaVuSans-47"/>
       <use xlink:href="#DejaVuSans-6f" transform="translate(77.490234 0)"/>
       <use xlink:href="#DejaVuSans-62" transform="translate(138.671875 0)"/>
       <use xlink:href="#DejaVuSans-69" transform="translate(202.148438 0)"/>
       <use xlink:href="#DejaVuSans-65" transform="translate(229.931641 0)"/>
       <use xlink:href="#DejaVuSans-72" transform="translate(291.455078 0)"/>
       <use xlink:href="#DejaVuSans-6e" transform="translate(330.818359 0)"/>
       <use xlink:href="#DejaVuSans-6f" transform="translate(394.197266 0)"/>
       <use xlink:href="#DejaVuSans-20" transform="translate(455.378906 0)"/>
       <use xlink:href="#DejaVuSans-6c" transform="translate(487.166016 0)"/>
       <use xlink:href="#DejaVuSans-6f" transform="translate(514.949219 0)"/>
       <use xlink:href="#DejaVuSans-63" transform="translate(576.130859 0)"/>
       <use xlink:href="#DejaVuSans-61" transform="translate(631.111328 0)"/>
       <use xlink:href="#DejaVuSans-6c" transform="translate(692.390625 0)"/>
      </g>
     </g>
    </g>
    <g id="xtick_4">
     <g id="line2d_4">
      <g>
       <use xlink:href="#m760110477a" x="243.432851" y="266.078125" style="fill: #5a5a5a; stroke: #5a5a5a; stroke-width: 0.8"/>
      </g>
     </g>
     <g id="text_4">
      <!-- Empresa del Estado -->
      <g style="fill: #5a5a5a" transform="translate(163.514733 321.142239) rotate(-28) scale(0.09 -0.09)">
       <defs>
        <path id="DejaVuSans-45" d="M 628 4666 
L 3578 4666 
L 3578 4134 
L 1259 4134 
L 1259 2753 
L 3481 2753 
L 3481 2222 
L 1259 2222 
L 1259 531 
L 3634 531 
L 3634 0 
L 628 0 
L 628 4666 
z
" transform="scale(0.015625)"/>
        <path id="DejaVuSans-6d" d="M 3328 2828 
Q 3544 3216 3844 3400 
Q 4144 3584 4550 3584 
Q 5097 3584 5394 3201 
Q 5691 2819 5691 2113 
L 5691 0 
L 5113 0 
L 5113 2094 
Q 5113 2597 4934 2840 
Q 4756 3084 4391 3084 
Q 3944 3084 3684 2787 
Q 3425 2491 3425 1978 
L 3425 0 
L 2847 0 
L 2847 2094 
Q 2847 2600 2669 2842 
Q 2491 3084 2119 3084 
Q 1678 3084 1418 2786 
Q 1159 2488 1159 1978 
L 1159 0 
L 581 0 
L 581 3500 
L 1159 3500 
L 1159 2956 
Q 1356 3278 1631 3431 
Q 1906 3584 2284 3584 
Q 2666 3584 2933 3390 
Q 3200 3197 3328 2828 
z
" transform="scale(0.015625)"/>
        <path id="DejaVuSans-70" d="M 1159 525 
L 1159 -1331 
L 581 -1331 
L 581 3500 
L 1159 3500 
L 1159 2969 
Q 1341 3281 1617 3432 
Q 1894 3584 2278 3584 
Q 2916 3584 3314 3078 
Q 3713 2572 3713 1747 
Q 3713 922 3314 415 
Q 2916 -91 2278 -91 
Q 1894 -91 1617 61 
Q 1341 213 1159 525 
z
M 3116 1747 
Q 3116 2381 2855 2742 
Q 2594 3103 2138 3103 
Q 1681 3103 1420 2742 
Q 1159 2381 1159 1747 
Q 1159 1113 1420 752 
Q 1681 391 2138 391 
Q 2594 391 2855 752 
Q 3116 1113 3116 1747 
z
" transform="scale(0.015625)"/>
        <path id="DejaVuSans-73" d="M 2834 3397 
L 2834 2853 
Q 2591 2978 2328 3040 
Q 2066 3103 1784 3103 
Q 1356 3103 1142 2972 
Q 928 2841 928 2578 
Q 928 2378 1081 2264 
Q 1234 2150 1697 2047 
L 1894 2003 
Q 2506 1872 2764 1633 
Q 3022 1394 3022 966 
Q 3022 478 2636 193 
Q 2250 -91 1575 -91 
Q 1294 -91 989 -36 
Q 684 19 347 128 
L 347 722 
Q 666 556 975 473 
Q 1284 391 1588 391 
Q 1994 391 2212 530 
Q 2431 669 2431 922 
Q 2431 1156 2273 1281 
Q 2116 1406 1581 1522 
L 1381 1569 
Q 847 1681 609 1914 
Q 372 2147 372 2553 
Q 372 3047 722 3315 
Q 1072 3584 1716 3584 
Q 2034 3584 2315 3537 
Q 2597 3491 2834 3397 
z
" transform="scale(0.015625)"/>
        <path id="DejaVuSans-64" d="M 2906 2969 
L 2906 4863 
L 3481 4863 
L 3481 0 
L 2906 0 
L 2906 525 
Q 2725 213 2448 61 
Q 2172 -91 1784 -91 
Q 1150 -91 751 415 
Q 353 922 353 1747 
Q 353 2572 751 3078 
Q 1150 3584 1784 3584 
Q 2172 3584 2448 3432 
Q 2725 3281 2906 2969 
z
M 947 1747 
Q 947 1113 1208 752 
Q 1469 391 1925 391 
Q 2381 391 2643 752 
Q 2906 1113 2906 1747 
Q 2906 2381 2643 2742 
Q 2381 3103 1925 3103 
Q 1469 3103 1208 2742 
Q 947 2381 947 1747 
z
" transform="scale(0.015625)"/>
        <path id="DejaVuSans-74" d="M 1172 4494 
L 1172 3500 
L 2356 3500 
L 2356 3053 
L 1172 3053 
L 1172 1153 
Q 1172 725 1289 603 
Q 1406 481 1766 481 
L 2356 481 
L 2356 0 
L 1766 0 
Q 1100 0 847 248 
Q 594 497 594 1153 
L 594 3053 
L 172 3053 
L 172 3500 
L 594 3500 
L 594 4494 
L 1172 4494 
z
" transform="scale(0.015625)"/>
       </defs>
       <use xlink:href="#DejaVuSans-45"/>
       <use xlink:href="#DejaVuSans-6d" transform="translate(63.183594 0)"/>
       <use xlink:href="#DejaVuSans-70" transform="translate(160.595703 0)"/>
       <use xlink:href="#DejaVuSans-72" transform="translate(224.072266 0)"/>
       <use xlink:href="#DejaVuSans-65" transform="translate(262.935547 0)"/>
       <use xlink:href="#DejaVuSans-73" transform="translate(324.458984 0)"/>
       <use xlink:href="#DejaVuSans-61" transform="translate(376.558594 0)"/>
       <use xlink:href="#DejaVuSans-20" transform="translate(437.837891 0)"/>
       <use xlink:href="#DejaVuSans-64" transform="translate(469.625 0)"/>
       <use xlink:href="#DejaVuSans-65" transform="translate(533.101562 0)"/>
       <use xlink:href="#DejaVuSans-6c" transform="translate(594.625 0)"/>
       <use xlink:href="#DejaVuSans-20" transform="translate(622.408203 0)"/>
       <use xlink:href="#DejaVuSans-45" transform="translate(654.195312 0)"/>
       <use xlink:href="#DejaVuSans-73" transform="translate(717.378906 0)"/>
       <use xlink:href="#DejaVuSans-74" transform="translate(769.478516 0)"/>
       <use xlink:href="#DejaVuSans-61" transform="translate(808.6875 0)"/>
       <use xlink:href="#DejaVuSans-64" transform="translate(869.966797 0)"/>
       <use xlink:href="#DejaVuSans-6f" transform="translate(933.443359 0)"/>
      </g>
     </g>
    </g>
    <g id="xtick_5">
     <g id="line2d_5">
      <g>
       <use xlink:href="#m760110477a" x="296.756767" y="266.078125" style="fill: #5a5a5a; stroke: #5a5a5a; stroke-width: 0.8"/>
      </g>
     </g>
     <g id="text_5">
      <!-- Otro -->
      <g style="fill: #5a5a5a" transform="translate(278.557099 288.325957) rotate(-28) scale(0.09 -0.09)">
       <defs>
        <path id="DejaVuSans-4f" d="M 2522 4238 
Q 1834 4238 1429 3725 
Q 1025 3213 1025 2328 
Q 1025 1447 1429 934 
Q 1834 422 2522 422 
Q 3209 422 3611 934 
Q 4013 1447 4013 2328 
Q 4013 3213 3611 3725 
Q 3209 4238 2522 4238 
z
M 2522 4750 
Q 3503 4750 4090 4092 
Q 4678 3434 4678 2328 
Q 4678 1225 4090 567 
Q 3503 -91 2522 -91 
Q 1538 -91 948 565 
Q 359 1222 359 2328 
Q 359 3434 948 4092 
Q 1538 4750 2522 4750 
z
" transform="scale(0.015625)"/>
       </defs>
       <use xlink:href="#DejaVuSans-4f"/>
       <use xlink:href="#DejaVuSans-74" transform="translate(78.710938 0)"/>
       <use xlink:href="#DejaVuSans-72" transform="translate(117.919922 0)"/>
       <use xlink:href="#DejaVuSans-6f" transform="translate(156.783203 0)"/>
      </g>
     </g>
    </g>
    <g id="xtick_6">
     <g id="line2d_6">
      <g>
       <use xlink:href="#m760110477a" x="350.080682" y="266.078125" style="fill: #5a5a5a; stroke: #5a5a5a; stroke-width: 0.8"/>
      </g>
     </g>
     <g id="text_6">
      <!-- Universidad publica -->
      <g style="fill: #5a5a5a" transform="translate(270.670397 320.872219) rotate(-28) scale(0.09 -0.09)">
       <defs>
        <path id="DejaVuSans-55" d="M 556 4666 
L 1191 4666 
L 1191 1831 
Q 1191 1081 1462 751 
Q 1734 422 2344 422 
Q 2950 422 3222 751 
Q 3494 1081 3494 1831 
L 3494 4666 
L 4128 4666 
L 4128 1753 
Q 4128 841 3676 375 
Q 3225 -91 2344 -91 
Q 1459 -91 1007 375 
Q 556 841 556 1753 
L 556 4666 
z
" transform="scale(0.015625)"/>
        <path id="DejaVuSans-76" d="M 191 3500 
L 800 3500 
L 1894 563 
L 2988 3500 
L 3597 3500 
L 2284 0 
L 1503 0 
L 191 3500 
z
" transform="scale(0.015625)"/>
        <path id="DejaVuSans-75" d="M 544 1381 
L 544 3500 
L 1119 3500 
L 1119 1403 
Q 1119 906 1312 657 
Q 1506 409 1894 409 
Q 2359 409 2629 706 
Q 2900 1003 2900 1516 
L 2900 3500 
L 3475 3500 
L 3475 0 
L 2900 0 
L 2900 538 
Q 2691 219 2414 64 
Q 2138 -91 1772 -91 
Q 1169 -91 856 284 
Q 544 659 544 1381 
z
M 1991 3584 
L 1991 3584 
z
" transform="scale(0.015625)"/>
       </defs>
       <use xlink:href="#DejaVuSans-55"/>
       <use xlink:href="#DejaVuSans-6e" transform="translate(73.193359 0)"/>
       <use xlink:href="#DejaVuSans-69" transform="translate(136.572266 0)"/>
       <use xlink:href="#DejaVuSans-76" transform="translate(164.355469 0)"/>
       <use xlink:href="#DejaVuSans-65" transform="translate(223.535156 0)"/>
       <use xlink:href="#DejaVuSans-72" transform="translate(285.058594 0)"/>
       <use xlink:href="#DejaVuSans-73" transform="translate(326.171875 0)"/>
       <use xlink:href="#DejaVuSans-69" transform="translate(378.271484 0)"/>
       <use xlink:href="#DejaVuSans-64" transform="translate(406.054688 0)"/>
       <use xlink:href="#DejaVuSans-61" transform="translate(469.53125 0)"/>
       <use xlink:href="#DejaVuSans-64" transform="translate(530.810547 0)"/>
       <use xlink:href="#DejaVuSans-20" transform="translate(594.287109 0)"/>
       <use xlink:href="#DejaVuSans-70" transform="translate(626.074219 0)"/>
       <use xlink:href="#DejaVuSans-75" transform="translate(689.550781 0)"/>
       <use xlink:href="#DejaVuSans-62" transform="translate(752.929688 0)"/>
       <use xlink:href="#DejaVuSans-6c" transform="translate(816.40625 0)"/>
       <use xlink:href="#DejaVuSans-69" transform="translate(844.189453 0)"/>
       <use xlink:href="#DejaVuSans-63" transform="translate(871.972656 0)"/>
       <use xlink:href="#DejaVuSans-61" transform="translate(926.953125 0)"/>
      </g>
     </g>
    </g>
    <g id="xtick_7">
     <g id="line2d_7">
      <g>
       <use xlink:href="#m760110477a" x="403.404598" y="266.078125" style="fill: #5a5a5a; stroke: #5a5a5a; stroke-width: 0.8"/>
      </g>
     </g>
     <g id="text_7">
      <!-- Fuerzas armadas y policiales -->
      <g style="fill: #5a5a5a" transform="translate(288.07228 339.972303) rotate(-28) scale(0.09 -0.09)">
       <defs>
        <path id="DejaVuSans-46" d="M 628 4666 
L 3309 4666 
L 3309 4134 
L 1259 4134 
L 1259 2759 
L 3109 2759 
L 3109 2228 
L 1259 2228 
L 1259 0 
L 628 0 
L 628 4666 
z
" transform="scale(0.015625)"/>
        <path id="DejaVuSans-7a" d="M 353 3500 
L 3084 3500 
L 3084 2975 
L 922 459 
L 3084 459 
L 3084 0 
L 275 0 
L 275 525 
L 2438 3041 
L 353 3041 
L 353 3500 
z
" transform="scale(0.015625)"/>
        <path id="DejaVuSans-79" d="M 2059 -325 
Q 1816 -950 1584 -1140 
Q 1353 -1331 966 -1331 
L 506 -1331 
L 506 -850 
L 844 -850 
Q 1081 -850 1212 -737 
Q 1344 -625 1503 -206 
L 1606 56 
L 191 3500 
L 800 3500 
L 1894 763 
L 2988 3500 
L 3597 3500 
L 2059 -325 
z
" transform="scale(0.015625)"/>
       </defs>
       <use xlink:href="#DejaVuSans-46"/>
       <use xlink:href="#DejaVuSans-75" transform="translate(52.019531 0)"/>
       <use xlink:href="#DejaVuSans-65" transform="translate(115.398438 0)"/>
       <use xlink:href="#DejaVuSans-72" transform="translate(176.921875 0)"/>
       <use xlink:href="#DejaVuSans-7a" transform="translate(218.035156 0)"/>
       <use xlink:href="#DejaVuSans-61" transform="translate(270.525391 0)"/>
       <use xlink:href="#DejaVuSans-73" transform="translate(331.804688 0)"/>
       <use xlink:href="#DejaVuSans-20" transform="translate(383.904297 0)"/>
       <use xlink:href="#DejaVuSans-61" transform="translate(415.691406 0)"/>
       <use xlink:href="#DejaVuSans-72" transform="translate(476.970703 0)"/>
       <use xlink:href="#DejaVuSans-6d" transform="translate(516.333984 0)"/>
       <use xlink:href="#DejaVuSans-61" transform="translate(613.746094 0)"/>
       <use xlink:href="#DejaVuSans-64" transform="translate(675.025391 0)"/>
       <use xlink:href="#DejaVuSans-61" transform="translate(738.501953 0)"/>
       <use xlink:href="#DejaVuSans-73" transform="translate(799.78125 0)"/>
       <use xlink:href="#DejaVuSans-20" transform="translate(851.880859 0)"/>
       <use xlink:href="#DejaVuSans-79" transform="translate(883.667969 0)"/>
       <use xlink:href="#DejaVuSans-20" transform="translate(942.847656 0)"/>
       <use xlink:href="#DejaVuSans-70" transform="translate(974.634766 0)"/>
       <use xlink:href="#DejaVuSans-6f" transform="translate(1038.111328 0)"/>
       <use xlink:href="#DejaVuSans-6c" transform="translate(1099.292969 0)"/>
       <use xlink:href="#DejaVuSans-69" transform="translate(1127.076172 0)"/>
       <use xlink:href="#DejaVuSans-63" transform="translate(1154.859375 0)"/>
       <use xlink:href="#DejaVuSans-69" transform="translate(1209.839844 0)"/>
       <use xlink:href="#DejaVuSans-61" transform="translate(1237.623047 0)"/>
       <use xlink:href="#DejaVuSans-6c" transform="translate(1298.902344 0)"/>
       <use xlink:href="#DejaVuSans-65" transform="translate(1326.685547 0)"/>
       <use xlink:href="#DejaVuSans-73" transform="translate(1388.208984 0)"/>
      </g>
     </g>
    </g>
    <g id="xtick_8">
     <g id="line2d_8">
      <g>
       <use xlink:href="#m760110477a" x="456.728513" y="266.078125" style="fill: #5a5a5a; stroke: #5a5a5a; stroke-width: 0.8"/>
      </g>
     </g>
     <g id="text_8">
      <!-- Establecimiento de salud -->
      <g style="fill: #5a5a5a" transform="translate(355.850185 332.28698) rotate(-28) scale(0.09 -0.09)">
       <use xlink:href="#DejaVuSans-45"/>
       <use xlink:href="#DejaVuSans-73" transform="translate(63.183594 0)"/>
       <use xlink:href="#DejaVuSans-74" transform="translate(115.283203 0)"/>
       <use xlink:href="#DejaVuSans-61" transform="translate(154.492188 0)"/>
       <use xlink:href="#DejaVuSans-62" transform="translate(215.771484 0)"/>
       <use xlink:href="#DejaVuSans-6c" transform="translate(279.248047 0)"/>
       <use xlink:href="#DejaVuSans-65" transform="translate(307.03125 0)"/>
       <use xlink:href="#DejaVuSans-63" transform="translate(368.554688 0)"/>
       <use xlink:href="#DejaVuSans-69" transform="translate(423.535156 0)"/>
       <use xlink:href="#DejaVuSans-6d" transform="translate(451.318359 0)"/>
       <use xlink:href="#DejaVuSans-69" transform="translate(548.730469 0)"/>
       <use xlink:href="#DejaVuSans-65" transform="translate(576.513672 0)"/>
       <use xlink:href="#DejaVuSans-6e" transform="translate(638.037109 0)"/>
       <use xlink:href="#DejaVuSans-74" transform="translate(701.416016 0)"/>
       <use xlink:href="#DejaVuSans-6f" transform="translate(740.625 0)"/>
       <use xlink:href="#DejaVuSans-20" transform="translate(801.806641 0)"/>
       <use xlink:href="#DejaVuSans-64" transform="translate(833.59375 0)"/>
       <use xlink:href="#DejaVuSans-65" transform="translate(897.070312 0)"/>
       <use xlink:href="#DejaVuSans-20" transform="translate(958.59375 0)"/>
       <use xlink:href="#DejaVuSans-73" transform="translate(990.380859 0)"/>
       <use xlink:href="#DejaVuSans-61" transform="translate(1042.480469 0)"/>
       <use xlink:href="#DejaVuSans-6c" transform="translate(1103.759766 0)"/>
       <use xlink:href="#DejaVuSans-75" transform="translate(1131.542969 0)"/>
       <use xlink:href="#DejaVuSans-64" transform="translate(1194.921875 0)"/>
      </g>
     </g>
    </g>
    <g id="xtick_9">
     <g id="line2d_9">
      <g>
       <use xlink:href="#m760110477a" x="510.052429" y="266.078125" style="fill: #5a5a5a; stroke: #5a5a5a; stroke-width: 0.8"/>
      </g>
     </g>
     <g id="text_9">
      <!-- Unidad educativa -->
      <g style="fill: #5a5a5a" transform="translate(439.523631 316.149849) rotate(-28) scale(0.09 -0.09)">
       <use xlink:href="#DejaVuSans-55"/>
       <use xlink:href="#DejaVuSans-6e" transform="translate(73.193359 0)"/>
       <use xlink:href="#DejaVuSans-69" transform="translate(136.572266 0)"/>
       <use xlink:href="#DejaVuSans-64" transform="translate(164.355469 0)"/>
       <use xlink:href="#DejaVuSans-61" transform="translate(227.832031 0)"/>
       <use xlink:href="#DejaVuSans-64" transform="translate(289.111328 0)"/>
       <use xlink:href="#DejaVuSans-20" transform="translate(352.587891 0)"/>
       <use xlink:href="#DejaVuSans-65" transform="translate(384.375 0)"/>
       <use xlink:href="#DejaVuSans-64" transform="translate(445.898438 0)"/>
       <use xlink:href="#DejaVuSans-75" transform="translate(509.375 0)"/>
       <use xlink:href="#DejaVuSans-63" transform="translate(572.753906 0)"/>
       <use xlink:href="#DejaVuSans-61" transform="translate(627.734375 0)"/>
       <use xlink:href="#DejaVuSans-74" transform="translate(689.013672 0)"/>
       <use xlink:href="#DejaVuSans-69" transform="translate(728.222656 0)"/>
       <use xlink:href="#DejaVuSans-76" transform="translate(756.005859 0)"/>
       <use xlink:href="#DejaVuSans-61" transform="translate(815.185547 0)"/>
      </g>
     </g>
    </g>
   </g>
   <g id="matplotlib.axis_2">
    <g id="ytick_1">
     <g id="line2d_10">
      <path d="M 40.076767 266.078125 
L 553.436767 266.078125 
" clip-path="url(#pe909f1a6bb)" style="fill: none; stroke: #e3e3e1; stroke-opacity: 0.9; stroke-width: 0.8; stroke-linecap: square"/>
     </g>
     <g id="line2d_11">
      <defs>
       <path id="m0df71cfb3c" d="M 0 0 
L -3.5 0 
" style="stroke: #5a5a5a; stroke-width: 0.8"/>
      </defs>
      <g>
       <use xlink:href="#m0df71cfb3c" x="40.076767" y="266.078125" style="fill: #5a5a5a; stroke: #5a5a5a; stroke-width: 0.8"/>
      </g>
     </g>
     <g id="text_10">
      <!-- 0 -->
      <g style="fill: #5a5a5a" transform="translate(27.350517 269.497422) scale(0.09 -0.09)">
       <defs>
        <path id="DejaVuSans-30" d="M 2034 4250 
Q 1547 4250 1301 3770 
Q 1056 3291 1056 2328 
Q 1056 1369 1301 889 
Q 1547 409 2034 409 
Q 2525 409 2770 889 
Q 3016 1369 3016 2328 
Q 3016 3291 2770 3770 
Q 2525 4250 2034 4250 
z
M 2034 4750 
Q 2819 4750 3233 4129 
Q 3647 3509 3647 2328 
Q 3647 1150 3233 529 
Q 2819 -91 2034 -91 
Q 1250 -91 836 529 
Q 422 1150 422 2328 
Q 422 3509 836 4129 
Q 1250 4750 2034 4750 
z
" transform="scale(0.015625)"/>
       </defs>
       <use xlink:href="#DejaVuSans-30"/>
      </g>
     </g>
    </g>
    <g id="ytick_2">
     <g id="line2d_12">
      <path d="M 40.076767 240.901555 
L 553.436767 240.901555 
" clip-path="url(#pe909f1a6bb)" style="fill: none; stroke: #e3e3e1; stroke-opacity: 0.9; stroke-width: 0.8; stroke-linecap: square"/>
     </g>
     <g id="line2d_13">
      <g>
       <use xlink:href="#m0df71cfb3c" x="40.076767" y="240.901555" style="fill: #5a5a5a; stroke: #5a5a5a; stroke-width: 0.8"/>
      </g>
     </g>
     <g id="text_11">
      <!-- 10 -->
      <g style="fill: #5a5a5a" transform="translate(21.624267 244.320852) scale(0.09 -0.09)">
       <defs>
        <path id="DejaVuSans-31" d="M 794 531 
L 1825 531 
L 1825 4091 
L 703 3866 
L 703 4441 
L 1819 4666 
L 2450 4666 
L 2450 531 
L 3481 531 
L 3481 0 
L 794 0 
L 794 531 
z
" transform="scale(0.015625)"/>
       </defs>
       <use xlink:href="#DejaVuSans-31"/>
       <use xlink:href="#DejaVuSans-30" transform="translate(63.623047 0)"/>
      </g>
     </g>
    </g>
    <g id="ytick_3">
     <g id="line2d_14">
      <path d="M 40.076767 215.724986 
L 553.436767 215.724986 
" clip-path="url(#pe909f1a6bb)" style="fill: none; stroke: #e3e3e1; stroke-opacity: 0.9; stroke-width: 0.8; stroke-linecap: square"/>
     </g>
     <g id="line2d_15">
      <g>
       <use xlink:href="#m0df71cfb3c" x="40.076767" y="215.724986" style="fill: #5a5a5a; stroke: #5a5a5a; stroke-width: 0.8"/>
      </g>
     </g>
     <g id="text_12">
      <!-- 20 -->
      <g style="fill: #5a5a5a" transform="translate(21.624267 219.144283) scale(0.09 -0.09)">
       <defs>
        <path id="DejaVuSans-32" d="M 1228 531 
L 3431 531 
L 3431 0 
L 469 0 
L 469 531 
Q 828 903 1448 1529 
Q 2069 2156 2228 2338 
Q 2531 2678 2651 2914 
Q 2772 3150 2772 3378 
Q 2772 3750 2511 3984 
Q 2250 4219 1831 4219 
Q 1534 4219 1204 4116 
Q 875 4013 500 3803 
L 500 4441 
Q 881 4594 1212 4672 
Q 1544 4750 1819 4750 
Q 2544 4750 2975 4387 
Q 3406 4025 3406 3419 
Q 3406 3131 3298 2873 
Q 3191 2616 2906 2266 
Q 2828 2175 2409 1742 
Q 1991 1309 1228 531 
z
" transform="scale(0.015625)"/>
       </defs>
       <use xlink:href="#DejaVuSans-32"/>
       <use xlink:href="#DejaVuSans-30" transform="translate(63.623047 0)"/>
      </g>
     </g>
    </g>
    <g id="ytick_4">
     <g id="line2d_16">
      <path d="M 40.076767 190.548416 
L 553.436767 190.548416 
" clip-path="url(#pe909f1a6bb)" style="fill: none; stroke: #e3e3e1; stroke-opacity: 0.9; stroke-width: 0.8; stroke-linecap: square"/>
     </g>
     <g id="line2d_17">
      <g>
       <use xlink:href="#m0df71cfb3c" x="40.076767" y="190.548416" style="fill: #5a5a5a; stroke: #5a5a5a; stroke-width: 0.8"/>
      </g>
     </g>
     <g id="text_13">
      <!-- 30 -->
      <g style="fill: #5a5a5a" transform="translate(21.624267 193.967713) scale(0.09 -0.09)">
       <defs>
        <path id="DejaVuSans-33" d="M 2597 2516 
Q 3050 2419 3304 2112 
Q 3559 1806 3559 1356 
Q 3559 666 3084 287 
Q 2609 -91 1734 -91 
Q 1441 -91 1130 -33 
Q 819 25 488 141 
L 488 750 
Q 750 597 1062 519 
Q 1375 441 1716 441 
Q 2309 441 2620 675 
Q 2931 909 2931 1356 
Q 2931 1769 2642 2001 
Q 2353 2234 1838 2234 
L 1294 2234 
L 1294 2753 
L 1863 2753 
Q 2328 2753 2575 2939 
Q 2822 3125 2822 3475 
Q 2822 3834 2567 4026 
Q 2313 4219 1838 4219 
Q 1578 4219 1281 4162 
Q 984 4106 628 3988 
L 628 4550 
Q 988 4650 1302 4700 
Q 1616 4750 1894 4750 
Q 2613 4750 3031 4423 
Q 3450 4097 3450 3541 
Q 3450 3153 3228 2886 
Q 3006 2619 2597 2516 
z
" transform="scale(0.015625)"/>
       </defs>
       <use xlink:href="#DejaVuSans-33"/>
       <use xlink:href="#DejaVuSans-30" transform="translate(63.623047 0)"/>
      </g>
     </g>
    </g>
    <g id="ytick_5">
     <g id="line2d_18">
      <path d="M 40.076767 165.371846 
L 553.436767 165.371846 
" clip-path="url(#pe909f1a6bb)" style="fill: none; stroke: #e3e3e1; stroke-opacity: 0.9; stroke-width: 0.8; stroke-linecap: square"/>
     </g>
     <g id="line2d_19">
      <g>
       <use xlink:href="#m0df71cfb3c" x="40.076767" y="165.371846" style="fill: #5a5a5a; stroke: #5a5a5a; stroke-width: 0.8"/>
      </g>
     </g>
     <g id="text_14">
      <!-- 40 -->
      <g style="fill: #5a5a5a" transform="translate(21.624267 168.791143) scale(0.09 -0.09)">
       <defs>
        <path id="DejaVuSans-34" d="M 2419 4116 
L 825 1625 
L 2419 1625 
L 2419 4116 
z
M 2253 4666 
L 3047 4666 
L 3047 1625 
L 3713 1625 
L 3713 1100 
L 3047 1100 
L 3047 0 
L 2419 0 
L 2419 1100 
L 313 1100 
L 313 1709 
L 2253 4666 
z
" transform="scale(0.015625)"/>
       </defs>
       <use xlink:href="#DejaVuSans-34"/>
       <use xlink:href="#DejaVuSans-30" transform="translate(63.623047 0)"/>
      </g>
     </g>
    </g>
    <g id="ytick_6">
     <g id="line2d_20">
      <path d="M 40.076767 140.195277 
L 553.436767 140.195277 
" clip-path="url(#pe909f1a6bb)" style="fill: none; stroke: #e3e3e1; stroke-opacity: 0.9; stroke-width: 0.8; stroke-linecap: square"/>
     </g>
     <g id="line2d_21">
      <g>
       <use xlink:href="#m0df71cfb3c" x="40.076767" y="140.195277" style="fill: #5a5a5a; stroke: #5a5a5a; stroke-width: 0.8"/>
      </g>
     </g>
     <g id="text_15">
      <!-- 50 -->
      <g style="fill: #5a5a5a" transform="translate(21.624267 143.614574) scale(0.09 -0.09)">
       <defs>
        <path id="DejaVuSans-35" d="M 691 4666 
L 3169 4666 
L 3169 4134 
L 1269 4134 
L 1269 2991 
Q 1406 3038 1543 3061 
Q 1681 3084 1819 3084 
Q 2600 3084 3056 2656 
Q 3513 2228 3513 1497 
Q 3513 744 3044 326 
Q 2575 -91 1722 -91 
Q 1428 -91 1123 -41 
Q 819 9 494 109 
L 494 744 
Q 775 591 1075 516 
Q 1375 441 1709 441 
Q 2250 441 2565 725 
Q 2881 1009 2881 1497 
Q 2881 1984 2565 2268 
Q 2250 2553 1709 2553 
Q 1456 2553 1204 2497 
Q 953 2441 691 2322 
L 691 4666 
z
" transform="scale(0.015625)"/>
       </defs>
       <use xlink:href="#DejaVuSans-35"/>
       <use xlink:href="#DejaVuSans-30" transform="translate(63.623047 0)"/>
      </g>
     </g>
    </g>
    <g id="ytick_7">
     <g id="line2d_22">
      <path d="M 40.076767 115.018707 
L 553.436767 115.018707 
" clip-path="url(#pe909f1a6bb)" style="fill: none; stroke: #e3e3e1; stroke-opacity: 0.9; stroke-width: 0.8; stroke-linecap: square"/>
     </g>
     <g id="line2d_23">
      <g>
       <use xlink:href="#m0df71cfb3c" x="40.076767" y="115.018707" style="fill: #5a5a5a; stroke: #5a5a5a; stroke-width: 0.8"/>
      </g>
     </g>
     <g id="text_16">
      <!-- 60 -->
      <g style="fill: #5a5a5a" transform="translate(21.624267 118.438004) scale(0.09 -0.09)">
       <defs>
        <path id="DejaVuSans-36" d="M 2113 2584 
Q 1688 2584 1439 2293 
Q 1191 2003 1191 1497 
Q 1191 994 1439 701 
Q 1688 409 2113 409 
Q 2538 409 2786 701 
Q 3034 994 3034 1497 
Q 3034 2003 2786 2293 
Q 2538 2584 2113 2584 
z
M 3366 4563 
L 3366 3988 
Q 3128 4100 2886 4159 
Q 2644 4219 2406 4219 
Q 1781 4219 1451 3797 
Q 1122 3375 1075 2522 
Q 1259 2794 1537 2939 
Q 1816 3084 2150 3084 
Q 2853 3084 3261 2657 
Q 3669 2231 3669 1497 
Q 3669 778 3244 343 
Q 2819 -91 2113 -91 
Q 1303 -91 875 529 
Q 447 1150 447 2328 
Q 447 3434 972 4092 
Q 1497 4750 2381 4750 
Q 2619 4750 2861 4703 
Q 3103 4656 3366 4563 
z
" transform="scale(0.015625)"/>
       </defs>
       <use xlink:href="#DejaVuSans-36"/>
       <use xlink:href="#DejaVuSans-30" transform="translate(63.623047 0)"/>
      </g>
     </g>
    </g>
    <g id="ytick_8">
     <g id="line2d_24">
      <path d="M 40.076767 89.842137 
L 553.436767 89.842137 
" clip-path="url(#pe909f1a6bb)" style="fill: none; stroke: #e3e3e1; stroke-opacity: 0.9; stroke-width: 0.8; stroke-linecap: square"/>
     </g>
     <g id="line2d_25">
      <g>
       <use xlink:href="#m0df71cfb3c" x="40.076767" y="89.842137" style="fill: #5a5a5a; stroke: #5a5a5a; stroke-width: 0.8"/>
      </g>
     </g>
     <g id="text_17">
      <!-- 70 -->
      <g style="fill: #5a5a5a" transform="translate(21.624267 93.261434) scale(0.09 -0.09)">
       <defs>
        <path id="DejaVuSans-37" d="M 525 4666 
L 3525 4666 
L 3525 4397 
L 1831 0 
L 1172 0 
L 2766 4134 
L 525 4134 
L 525 4666 
z
" transform="scale(0.015625)"/>
       </defs>
       <use xlink:href="#DejaVuSans-37"/>
       <use xlink:href="#DejaVuSans-30" transform="translate(63.623047 0)"/>
      </g>
     </g>
    </g>
    <g id="ytick_9">
     <g id="line2d_26">
      <path d="M 40.076767 64.665568 
L 553.436767 64.665568 
" clip-path="url(#pe909f1a6bb)" style="fill: none; stroke: #e3e3e1; stroke-opacity: 0.9; stroke-width: 0.8; stroke-linecap: square"/>
     </g>
     <g id="line2d_27">
      <g>
       <use xlink:href="#m0df71cfb3c" x="40.076767" y="64.665568" style="fill: #5a5a5a; stroke: #5a5a5a; stroke-width: 0.8"/>
      </g>
     </g>
     <g id="text_18">
      <!-- 80 -->
      <g style="fill: #5a5a5a" transform="translate(21.624267 68.084865) scale(0.09 -0.09)">
       <defs>
        <path id="DejaVuSans-38" d="M 2034 2216 
Q 1584 2216 1326 1975 
Q 1069 1734 1069 1313 
Q 1069 891 1326 650 
Q 1584 409 2034 409 
Q 2484 409 2743 651 
Q 3003 894 3003 1313 
Q 3003 1734 2745 1975 
Q 2488 2216 2034 2216 
z
M 1403 2484 
Q 997 2584 770 2862 
Q 544 3141 544 3541 
Q 544 4100 942 4425 
Q 1341 4750 2034 4750 
Q 2731 4750 3128 4425 
Q 3525 4100 3525 3541 
Q 3525 3141 3298 2862 
Q 3072 2584 2669 2484 
Q 3125 2378 3379 2068 
Q 3634 1759 3634 1313 
Q 3634 634 3220 271 
Q 2806 -91 2034 -91 
Q 1263 -91 848 271 
Q 434 634 434 1313 
Q 434 1759 690 2068 
Q 947 2378 1403 2484 
z
M 1172 3481 
Q 1172 3119 1398 2916 
Q 1625 2713 2034 2713 
Q 2441 2713 2670 2916 
Q 2900 3119 2900 3481 
Q 2900 3844 2670 4047 
Q 2441 4250 2034 4250 
Q 1625 4250 1398 4047 
Q 1172 3844 1172 3481 
z
" transform="scale(0.015625)"/>
       </defs>
       <use xlink:href="#DejaVuSans-38"/>
       <use xlink:href="#DejaVuSans-30" transform="translate(63.623047 0)"/>
      </g>
     </g>
    </g>
    <g id="text_19">
     <!-- miles de procesos  /  miles de millones de soles -->
     <g style="fill: #5a5a5a" transform="translate(15.544579 274.137187) rotate(-90) scale(0.1 -0.1)">
      <defs>
       <path id="DejaVuSans-2f" d="M 1625 4666 
L 2156 4666 
L 531 -594 
L 0 -594 
L 1625 4666 
z
" transform="scale(0.015625)"/>
      </defs>
      <use xlink:href="#DejaVuSans-6d"/>
      <use xlink:href="#DejaVuSans-69" transform="translate(97.412109 0)"/>
      <use xlink:href="#DejaVuSans-6c" transform="translate(125.195312 0)"/>
      <use xlink:href="#DejaVuSans-65" transform="translate(152.978516 0)"/>
      <use xlink:href="#DejaVuSans-73" transform="translate(214.501953 0)"/>
      <use xlink:href="#DejaVuSans-20" transform="translate(266.601562 0)"/>
      <use xlink:href="#DejaVuSans-64" transform="translate(298.388672 0)"/>
      <use xlink:href="#DejaVuSans-65" transform="translate(361.865234 0)"/>
      <use xlink:href="#DejaVuSans-20" transform="translate(423.388672 0)"/>
      <use xlink:href="#DejaVuSans-70" transform="translate(455.175781 0)"/>
      <use xlink:href="#DejaVuSans-72" transform="translate(518.652344 0)"/>
      <use xlink:href="#DejaVuSans-6f" transform="translate(557.515625 0)"/>
      <use xlink:href="#DejaVuSans-63" transform="translate(618.697266 0)"/>
      <use xlink:href="#DejaVuSans-65" transform="translate(673.677734 0)"/>
      <use xlink:href="#DejaVuSans-73" transform="translate(735.201172 0)"/>
      <use xlink:href="#DejaVuSans-6f" transform="translate(787.300781 0)"/>
      <use xlink:href="#DejaVuSans-73" transform="translate(848.482422 0)"/>
      <use xlink:href="#DejaVuSans-20" transform="translate(900.582031 0)"/>
      <use xlink:href="#DejaVuSans-20" transform="translate(932.369141 0)"/>
      <use xlink:href="#DejaVuSans-2f" transform="translate(964.15625 0)"/>
      <use xlink:href="#DejaVuSans-20" transform="translate(997.847656 0)"/>
      <use xlink:href="#DejaVuSans-20" transform="translate(1029.634766 0)"/>
      <use xlink:href="#DejaVuSans-6d" transform="translate(1061.421875 0)"/>
      <use xlink:href="#DejaVuSans-69" transform="translate(1158.833984 0)"/>
      <use xlink:href="#DejaVuSans-6c" transform="translate(1186.617188 0)"/>
      <use xlink:href="#DejaVuSans-65" transform="translate(1214.400391 0)"/>
      <use xlink:href="#DejaVuSans-73" transform="translate(1275.923828 0)"/>
      <use xlink:href="#DejaVuSans-20" transform="translate(1328.023438 0)"/>
      <use xlink:href="#DejaVuSans-64" transform="translate(1359.810547 0)"/>
      <use xlink:href="#DejaVuSans-65" transform="translate(1423.287109 0)"/>
      <use xlink:href="#DejaVuSans-20" transform="translate(1484.810547 0)"/>
      <use xlink:href="#DejaVuSans-6d" transform="translate(1516.597656 0)"/>
      <use xlink:href="#DejaVuSans-69" transform="translate(1614.009766 0)"/>
      <use xlink:href="#DejaVuSans-6c" transform="translate(1641.792969 0)"/>
      <use xlink:href="#DejaVuSans-6c" transform="translate(1669.576172 0)"/>
      <use xlink:href="#DejaVuSans-6f" transform="translate(1697.359375 0)"/>
      <use xlink:href="#DejaVuSans-6e" transform="translate(1758.541016 0)"/>
      <use xlink:href="#DejaVuSans-65" transform="translate(1821.919922 0)"/>
      <use xlink:href="#DejaVuSans-73" transform="translate(1883.443359 0)"/>
      <use xlink:href="#DejaVuSans-20" transform="translate(1935.542969 0)"/>
      <use xlink:href="#DejaVuSans-64" transform="translate(1967.330078 0)"/>
      <use xlink:href="#DejaVuSans-65" transform="translate(2030.806641 0)"/>
      <use xlink:href="#DejaVuSans-20" transform="translate(2092.330078 0)"/>
      <use xlink:href="#DejaVuSans-73" transform="translate(2124.117188 0)"/>
      <use xlink:href="#DejaVuSans-6f" transform="translate(2176.216797 0)"/>
      <use xlink:href="#DejaVuSans-6c" transform="translate(2237.398438 0)"/>
      <use xlink:href="#DejaVuSans-65" transform="translate(2265.181641 0)"/>
      <use xlink:href="#DejaVuSans-73" transform="translate(2326.705078 0)"/>
     </g>
    </g>
   </g>
   <g id="patch_3">
    <path d="M 63.411312 266.078125 
L 82.18133 266.078125 
L 82.18133 190.588699 
L 63.411312 190.588699 
z
" clip-path="url(#pe909f1a6bb)" style="fill: #2e6db4"/>
   </g>
   <g id="patch_4">
    <path d="M 116.735228 266.078125 
L 135.505246 266.078125 
L 135.505246 165.935802 
L 116.735228 165.935802 
z
" clip-path="url(#pe909f1a6bb)" style="fill: #2e6db4"/>
   </g>
   <g id="patch_5">
    <path d="M 170.059143 266.078125 
L 188.829162 266.078125 
L 188.829162 81.141115 
L 170.059143 81.141115 
z
" clip-path="url(#pe909f1a6bb)" style="fill: #2e6db4"/>
   </g>
   <g id="patch_6">
    <path d="M 223.383059 266.078125 
L 242.153077 266.078125 
L 242.153077 245.816022 
L 223.383059 245.816022 
z
" clip-path="url(#pe909f1a6bb)" style="fill: #2e6db4"/>
   </g>
   <g id="patch_7">
    <path d="M 276.706974 266.078125 
L 295.476993 266.078125 
L 295.476993 239.033454 
L 276.706974 239.033454 
z
" clip-path="url(#pe909f1a6bb)" style="fill: #2e6db4"/>
   </g>
   <g id="patch_8">
    <path d="M 330.03089 266.078125 
L 348.800908 266.078125 
L 348.800908 248.217866 
L 330.03089 248.217866 
z
" clip-path="url(#pe909f1a6bb)" style="fill: #2e6db4"/>
   </g>
   <g id="patch_9">
    <path d="M 383.354806 266.078125 
L 402.124824 266.078125 
L 402.124824 251.445503 
L 383.354806 251.445503 
z
" clip-path="url(#pe909f1a6bb)" style="fill: #2e6db4"/>
   </g>
   <g id="patch_10">
    <path d="M 436.678721 266.078125 
L 455.448739 266.078125 
L 455.448739 260.342902 
L 436.678721 260.342902 
z
" clip-path="url(#pe909f1a6bb)" style="fill: #2e6db4"/>
   </g>
   <g id="patch_11">
    <path d="M 490.002637 266.078125 
L 508.772655 266.078125 
L 508.772655 265.554452 
L 490.002637 265.554452 
z
" clip-path="url(#pe909f1a6bb)" style="fill: #2e6db4"/>
   </g>
   <g id="patch_12">
    <path d="M 84.740878 266.078125 
L 103.510897 266.078125 
L 103.510897 60.744792 
L 84.740878 60.744792 
z
" clip-path="url(#pe909f1a6bb)" style="fill: #b3441f"/>
   </g>
   <g id="patch_13">
    <path d="M 138.064794 266.078125 
L 156.834812 266.078125 
L 156.834812 105.637952 
L 138.064794 105.637952 
z
" clip-path="url(#pe909f1a6bb)" style="fill: #b3441f"/>
   </g>
   <g id="patch_14">
    <path d="M 191.388709 266.078125 
L 210.158728 266.078125 
L 210.158728 109.933356 
L 191.388709 109.933356 
z
" clip-path="url(#pe909f1a6bb)" style="fill: #b3441f"/>
   </g>
   <g id="patch_15">
    <path d="M 244.712625 266.078125 
L 263.482643 266.078125 
L 263.482643 227.175516 
L 244.712625 227.175516 
z
" clip-path="url(#pe909f1a6bb)" style="fill: #b3441f"/>
   </g>
   <g id="patch_16">
    <path d="M 298.036541 266.078125 
L 316.806559 266.078125 
L 316.806559 231.538021 
L 298.036541 231.538021 
z
" clip-path="url(#pe909f1a6bb)" style="fill: #b3441f"/>
   </g>
   <g id="patch_17">
    <path d="M 351.360456 266.078125 
L 370.130474 266.078125 
L 370.130474 251.421587 
L 351.360456 251.421587 
z
" clip-path="url(#pe909f1a6bb)" style="fill: #b3441f"/>
   </g>
   <g id="patch_18">
    <path d="M 404.684372 266.078125 
L 423.45439 266.078125 
L 423.45439 254.351068 
L 404.684372 254.351068 
z
" clip-path="url(#pe909f1a6bb)" style="fill: #b3441f"/>
   </g>
   <g id="patch_19">
    <path d="M 458.008287 266.078125 
L 476.778306 266.078125 
L 476.778306 262.161741 
L 458.008287 262.161741 
z
" clip-path="url(#pe909f1a6bb)" style="fill: #b3441f"/>
   </g>
   <g id="patch_20">
    <path d="M 511.332203 266.078125 
L 530.102221 266.078125 
L 530.102221 265.834163 
L 511.332203 265.834163 
z
" clip-path="url(#pe909f1a6bb)" style="fill: #b3441f"/>
   </g>
   <g id="patch_21">
    <path d="M 40.076767 266.078125 
L 40.076767 44.318125 
" style="fill: none; stroke: #e3e3e1; stroke-width: 0.8; stroke-linejoin: miter; stroke-linecap: square"/>
   </g>
   <g id="patch_22">
    <path d="M 40.076767 266.078125 
L 553.436767 266.078125 
" style="fill: none; stroke: #e3e3e1; stroke-width: 0.8; stroke-linejoin: miter; stroke-linecap: square"/>
   </g>
   <g id="text_20">
    <!-- Volumen y monto por nivel de gobierno -->
    <g style="fill: #1c1c1c" transform="translate(40.076767 16.318125) scale(0.12 -0.12)">
     <defs>
      <path id="DejaVuSans-Bold-56" d="M 31 4666 
L 1241 4666 
L 2478 1222 
L 3713 4666 
L 4922 4666 
L 3194 0 
L 1759 0 
L 31 4666 
z
" transform="scale(0.015625)"/>
      <path id="DejaVuSans-Bold-6f" d="M 2203 2784 
Q 1831 2784 1636 2517 
Q 1441 2250 1441 1747 
Q 1441 1244 1636 976 
Q 1831 709 2203 709 
Q 2569 709 2762 976 
Q 2956 1244 2956 1747 
Q 2956 2250 2762 2517 
Q 2569 2784 2203 2784 
z
M 2203 3584 
Q 3106 3584 3614 3096 
Q 4122 2609 4122 1747 
Q 4122 884 3614 396 
Q 3106 -91 2203 -91 
Q 1297 -91 786 396 
Q 275 884 275 1747 
Q 275 2609 786 3096 
Q 1297 3584 2203 3584 
z
" transform="scale(0.015625)"/>
      <path id="DejaVuSans-Bold-6c" d="M 538 4863 
L 1656 4863 
L 1656 0 
L 538 0 
L 538 4863 
z
" transform="scale(0.015625)"/>
      <path id="DejaVuSans-Bold-75" d="M 500 1363 
L 500 3500 
L 1625 3500 
L 1625 3150 
Q 1625 2866 1622 2436 
Q 1619 2006 1619 1863 
Q 1619 1441 1641 1255 
Q 1663 1069 1716 984 
Q 1784 875 1895 815 
Q 2006 756 2150 756 
Q 2500 756 2700 1025 
Q 2900 1294 2900 1772 
L 2900 3500 
L 4019 3500 
L 4019 0 
L 2900 0 
L 2900 506 
Q 2647 200 2364 54 
Q 2081 -91 1741 -91 
Q 1134 -91 817 281 
Q 500 653 500 1363 
z
" transform="scale(0.015625)"/>
      <path id="DejaVuSans-Bold-6d" d="M 3781 2919 
Q 3994 3244 4286 3414 
Q 4578 3584 4928 3584 
Q 5531 3584 5847 3212 
Q 6163 2841 6163 2131 
L 6163 0 
L 5038 0 
L 5038 1825 
Q 5041 1866 5042 1909 
Q 5044 1953 5044 2034 
Q 5044 2406 4934 2573 
Q 4825 2741 4581 2741 
Q 4263 2741 4089 2478 
Q 3916 2216 3909 1719 
L 3909 0 
L 2784 0 
L 2784 1825 
Q 2784 2406 2684 2573 
Q 2584 2741 2328 2741 
Q 2006 2741 1831 2477 
Q 1656 2213 1656 1722 
L 1656 0 
L 531 0 
L 531 3500 
L 1656 3500 
L 1656 2988 
Q 1863 3284 2130 3434 
Q 2397 3584 2719 3584 
Q 3081 3584 3359 3409 
Q 3638 3234 3781 2919 
z
" transform="scale(0.015625)"/>
      <path id="DejaVuSans-Bold-65" d="M 4031 1759 
L 4031 1441 
L 1416 1441 
Q 1456 1047 1700 850 
Q 1944 653 2381 653 
Q 2734 653 3104 758 
Q 3475 863 3866 1075 
L 3866 213 
Q 3469 63 3072 -14 
Q 2675 -91 2278 -91 
Q 1328 -91 801 392 
Q 275 875 275 1747 
Q 275 2603 792 3093 
Q 1309 3584 2216 3584 
Q 3041 3584 3536 3087 
Q 4031 2591 4031 1759 
z
M 2881 2131 
Q 2881 2450 2695 2645 
Q 2509 2841 2209 2841 
Q 1884 2841 1681 2658 
Q 1478 2475 1428 2131 
L 2881 2131 
z
" transform="scale(0.015625)"/>
      <path id="DejaVuSans-Bold-6e" d="M 4056 2131 
L 4056 0 
L 2931 0 
L 2931 347 
L 2931 1631 
Q 2931 2084 2911 2256 
Q 2891 2428 2841 2509 
Q 2775 2619 2662 2680 
Q 2550 2741 2406 2741 
Q 2056 2741 1856 2470 
Q 1656 2200 1656 1722 
L 1656 0 
L 538 0 
L 538 3500 
L 1656 3500 
L 1656 2988 
Q 1909 3294 2193 3439 
Q 2478 3584 2822 3584 
Q 3428 3584 3742 3212 
Q 4056 2841 4056 2131 
z
" transform="scale(0.015625)"/>
      <path id="DejaVuSans-Bold-20" transform="scale(0.015625)"/>
      <path id="DejaVuSans-Bold-79" d="M 78 3500 
L 1197 3500 
L 2138 1125 
L 2938 3500 
L 4056 3500 
L 2584 -331 
Q 2363 -916 2067 -1148 
Q 1772 -1381 1288 -1381 
L 641 -1381 
L 641 -647 
L 991 -647 
Q 1275 -647 1404 -556 
Q 1534 -466 1606 -231 
L 1638 -134 
L 78 3500 
z
" transform="scale(0.015625)"/>
      <path id="DejaVuSans-Bold-74" d="M 1759 4494 
L 1759 3500 
L 2913 3500 
L 2913 2700 
L 1759 2700 
L 1759 1216 
Q 1759 972 1856 886 
Q 1953 800 2241 800 
L 2816 800 
L 2816 0 
L 1856 0 
Q 1194 0 917 276 
Q 641 553 641 1216 
L 641 2700 
L 84 2700 
L 84 3500 
L 641 3500 
L 641 4494 
L 1759 4494 
z
" transform="scale(0.015625)"/>
      <path id="DejaVuSans-Bold-70" d="M 1656 506 
L 1656 -1331 
L 538 -1331 
L 538 3500 
L 1656 3500 
L 1656 2988 
Q 1888 3294 2169 3439 
Q 2450 3584 2816 3584 
Q 3463 3584 3878 3070 
Q 4294 2556 4294 1747 
Q 4294 938 3878 423 
Q 3463 -91 2816 -91 
Q 2450 -91 2169 54 
Q 1888 200 1656 506 
z
M 2400 2772 
Q 2041 2772 1848 2508 
Q 1656 2244 1656 1747 
Q 1656 1250 1848 986 
Q 2041 722 2400 722 
Q 2759 722 2948 984 
Q 3138 1247 3138 1747 
Q 3138 2247 2948 2509 
Q 2759 2772 2400 2772 
z
" transform="scale(0.015625)"/>
      <path id="DejaVuSans-Bold-72" d="M 3138 2547 
Q 2991 2616 2845 2648 
Q 2700 2681 2553 2681 
Q 2122 2681 1889 2404 
Q 1656 2128 1656 1613 
L 1656 0 
L 538 0 
L 538 3500 
L 1656 3500 
L 1656 2925 
Q 1872 3269 2151 3426 
Q 2431 3584 2822 3584 
Q 2878 3584 2943 3579 
Q 3009 3575 3134 3559 
L 3138 2547 
z
" transform="scale(0.015625)"/>
      <path id="DejaVuSans-Bold-69" d="M 538 3500 
L 1656 3500 
L 1656 0 
L 538 0 
L 538 3500 
z
M 538 4863 
L 1656 4863 
L 1656 3950 
L 538 3950 
L 538 4863 
z
" transform="scale(0.015625)"/>
      <path id="DejaVuSans-Bold-76" d="M 97 3500 
L 1216 3500 
L 2088 1081 
L 2956 3500 
L 4078 3500 
L 2700 0 
L 1472 0 
L 97 3500 
z
" transform="scale(0.015625)"/>
      <path id="DejaVuSans-Bold-64" d="M 2919 2988 
L 2919 4863 
L 4044 4863 
L 4044 0 
L 2919 0 
L 2919 506 
Q 2688 197 2409 53 
Q 2131 -91 1766 -91 
Q 1119 -91 703 423 
Q 288 938 288 1747 
Q 288 2556 703 3070 
Q 1119 3584 1766 3584 
Q 2128 3584 2408 3439 
Q 2688 3294 2919 2988 
z
M 2181 722 
Q 2541 722 2730 984 
Q 2919 1247 2919 1747 
Q 2919 2247 2730 2509 
Q 2541 2772 2181 2772 
Q 1825 2772 1636 2509 
Q 1447 2247 1447 1747 
Q 1447 1247 1636 984 
Q 1825 722 2181 722 
z
" transform="scale(0.015625)"/>
      <path id="DejaVuSans-Bold-67" d="M 2919 594 
Q 2688 288 2409 144 
Q 2131 0 1766 0 
Q 1125 0 706 504 
Q 288 1009 288 1791 
Q 288 2575 706 3076 
Q 1125 3578 1766 3578 
Q 2131 3578 2409 3434 
Q 2688 3291 2919 2981 
L 2919 3500 
L 4044 3500 
L 4044 353 
Q 4044 -491 3511 -936 
Q 2978 -1381 1966 -1381 
Q 1638 -1381 1331 -1331 
Q 1025 -1281 716 -1178 
L 716 -306 
Q 1009 -475 1290 -558 
Q 1572 -641 1856 -641 
Q 2406 -641 2662 -400 
Q 2919 -159 2919 353 
L 2919 594 
z
M 2181 2772 
Q 1834 2772 1640 2515 
Q 1447 2259 1447 1791 
Q 1447 1309 1634 1061 
Q 1822 813 2181 813 
Q 2531 813 2725 1069 
Q 2919 1325 2919 1791 
Q 2919 2259 2725 2515 
Q 2531 2772 2181 2772 
z
" transform="scale(0.015625)"/>
      <path id="DejaVuSans-Bold-62" d="M 2400 722 
Q 2759 722 2948 984 
Q 3138 1247 3138 1747 
Q 3138 2247 2948 2509 
Q 2759 2772 2400 2772 
Q 2041 2772 1848 2508 
Q 1656 2244 1656 1747 
Q 1656 1250 1848 986 
Q 2041 722 2400 722 
z
M 1656 2988 
Q 1888 3294 2169 3439 
Q 2450 3584 2816 3584 
Q 3463 3584 3878 3070 
Q 4294 2556 4294 1747 
Q 4294 938 3878 423 
Q 3463 -91 2816 -91 
Q 2450 -91 2169 54 
Q 1888 200 1656 506 
L 1656 0 
L 538 0 
L 538 4863 
L 1656 4863 
L 1656 2988 
z
" transform="scale(0.015625)"/>
     </defs>
     <use xlink:href="#DejaVuSans-Bold-56"/>
     <use xlink:href="#DejaVuSans-Bold-6f" transform="translate(71.892578 0)"/>
     <use xlink:href="#DejaVuSans-Bold-6c" transform="translate(140.59375 0)"/>
     <use xlink:href="#DejaVuSans-Bold-75" transform="translate(174.871094 0)"/>
     <use xlink:href="#DejaVuSans-Bold-6d" transform="translate(246.0625 0)"/>
     <use xlink:href="#DejaVuSans-Bold-65" transform="translate(350.261719 0)"/>
     <use xlink:href="#DejaVuSans-Bold-6e" transform="translate(418.083984 0)"/>
     <use xlink:href="#DejaVuSans-Bold-20" transform="translate(489.275391 0)"/>
     <use xlink:href="#DejaVuSans-Bold-79" transform="translate(524.089844 0)"/>
     <use xlink:href="#DejaVuSans-Bold-20" transform="translate(589.275391 0)"/>
     <use xlink:href="#DejaVuSans-Bold-6d" transform="translate(624.089844 0)"/>
     <use xlink:href="#DejaVuSans-Bold-6f" transform="translate(728.289062 0)"/>
     <use xlink:href="#DejaVuSans-Bold-6e" transform="translate(796.990234 0)"/>
     <use xlink:href="#DejaVuSans-Bold-74" transform="translate(868.181641 0)"/>
     <use xlink:href="#DejaVuSans-Bold-6f" transform="translate(915.984375 0)"/>
     <use xlink:href="#DejaVuSans-Bold-20" transform="translate(984.685547 0)"/>
     <use xlink:href="#DejaVuSans-Bold-70" transform="translate(1019.5 0)"/>
     <use xlink:href="#DejaVuSans-Bold-6f" transform="translate(1091.082031 0)"/>
     <use xlink:href="#DejaVuSans-Bold-72" transform="translate(1159.783203 0)"/>
     <use xlink:href="#DejaVuSans-Bold-20" transform="translate(1209.099609 0)"/>
     <use xlink:href="#DejaVuSans-Bold-6e" transform="translate(1243.914062 0)"/>
     <use xlink:href="#DejaVuSans-Bold-69" transform="translate(1315.105469 0)"/>
     <use xlink:href="#DejaVuSans-Bold-76" transform="translate(1349.382812 0)"/>
     <use xlink:href="#DejaVuSans-Bold-65" transform="translate(1414.568359 0)"/>
     <use xlink:href="#DejaVuSans-Bold-6c" transform="translate(1482.390625 0)"/>
     <use xlink:href="#DejaVuSans-Bold-20" transform="translate(1516.667969 0)"/>
     <use xlink:href="#DejaVuSans-Bold-64" transform="translate(1551.482422 0)"/>
     <use xlink:href="#DejaVuSans-Bold-65" transform="translate(1623.064453 0)"/>
     <use xlink:href="#DejaVuSans-Bold-20" transform="translate(1690.886719 0)"/>
     <use xlink:href="#DejaVuSans-Bold-67" transform="translate(1725.701172 0)"/>
     <use xlink:href="#DejaVuSans-Bold-6f" transform="translate(1797.283203 0)"/>
     <use xlink:href="#DejaVuSans-Bold-62" transform="translate(1865.984375 0)"/>
     <use xlink:href="#DejaVuSans-Bold-69" transform="translate(1937.566406 0)"/>
     <use xlink:href="#DejaVuSans-Bold-65" transform="translate(1971.84375 0)"/>
     <use xlink:href="#DejaVuSans-Bold-72" transform="translate(2039.666016 0)"/>
     <use xlink:href="#DejaVuSans-Bold-6e" transform="translate(2088.982422 0)"/>
     <use xlink:href="#DejaVuSans-Bold-6f" transform="translate(2160.173828 0)"/>
    </g>
   </g>
   <g id="legend_1">
    <g id="patch_23">
     <path d="M 43.676767 36.378494 
L 61.676767 36.378494 
L 61.676767 30.078494 
L 43.676767 30.078494 
z
" style="fill: #2e6db4"/>
    </g>
    <g id="text_21">
     <!-- procesos_miles -->
     <g transform="translate(68.876767 36.378494) scale(0.09 -0.09)">
      <defs>
       <path id="DejaVuSans-5f" d="M 3263 -1063 
L 3263 -1509 
L -63 -1509 
L -63 -1063 
L 3263 -1063 
z
" transform="scale(0.015625)"/>
      </defs>
      <use xlink:href="#DejaVuSans-70"/>
      <use xlink:href="#DejaVuSans-72" transform="translate(63.476562 0)"/>
      <use xlink:href="#DejaVuSans-6f" transform="translate(102.339844 0)"/>
      <use xlink:href="#DejaVuSans-63" transform="translate(163.521484 0)"/>
      <use xlink:href="#DejaVuSans-65" transform="translate(218.501953 0)"/>
      <use xlink:href="#DejaVuSans-73" transform="translate(280.025391 0)"/>
      <use xlink:href="#DejaVuSans-6f" transform="translate(332.125 0)"/>
      <use xlink:href="#DejaVuSans-73" transform="translate(393.306641 0)"/>
      <use xlink:href="#DejaVuSans-5f" transform="translate(445.40625 0)"/>
      <use xlink:href="#DejaVuSans-6d" transform="translate(495.40625 0)"/>
      <use xlink:href="#DejaVuSans-69" transform="translate(592.818359 0)"/>
      <use xlink:href="#DejaVuSans-6c" transform="translate(620.601562 0)"/>
      <use xlink:href="#DejaVuSans-65" transform="translate(648.384766 0)"/>
      <use xlink:href="#DejaVuSans-73" transform="translate(709.908203 0)"/>
     </g>
    </g>
    <g id="patch_24">
     <path d="M 155.458173 36.378494 
L 173.458173 36.378494 
L 173.458173 30.078494 
L 155.458173 30.078494 
z
" style="fill: #b3441f"/>
    </g>
    <g id="text_22">
     <!-- monto_mmm -->
     <g transform="translate(180.658173 36.378494) scale(0.09 -0.09)">
      <use xlink:href="#DejaVuSans-6d"/>
      <use xlink:href="#DejaVuSans-6f" transform="translate(97.412109 0)"/>
      <use xlink:href="#DejaVuSans-6e" transform="translate(158.59375 0)"/>
      <use xlink:href="#DejaVuSans-74" transform="translate(221.972656 0)"/>
      <use xlink:href="#DejaVuSans-6f" transform="translate(261.181641 0)"/>
      <use xlink:href="#DejaVuSans-5f" transform="translate(322.363281 0)"/>
      <use xlink:href="#DejaVuSans-6d" transform="translate(372.363281 0)"/>
      <use xlink:href="#DejaVuSans-6d" transform="translate(469.775391 0)"/>
      <use xlink:href="#DejaVuSans-6d" transform="translate(567.1875 0)"/>
     </g>
    </g>
   </g>
  </g>
 </g>
 <defs>
  <clipPath id="pe909f1a6bb">
   <rect x="40.076767" y="44.318125" width="513.36" height="221.76"/>
  </clipPath>
 </defs>
</svg>
